PathFileType	4	(X/Y/Z)	../Python\running\Running15\task.trc
DataRate	CameraRate	NumFrames	NumMarkers	Units	OrigDataRate	OrigDataStartFrame	OrigNumFrames
200.000000	200.000000	5	30	mm	200.000000	0	215
Frame#	Time	C7			RBAK			CLAV			STRN			RASI			LASI			RTH1			RTH2			RTH3			RTB2			RHEE			RD5M			RTOE			LTH3			LTB2			LTB3			LHEE			LTOE			LD5M			RTB3			RTB1			T10			PE01			LPSI			PE03			PE02			LTH2			RPSI			LTH1			LTB1			
		X1	Y1	Z1	X2	Y2	Z2	X3	Y3	Z3	X4	Y4	Z4	X5	Y5	Z5	X6	Y6	Z6	X7	Y7	Z7	X8	Y8	Z8	X9	Y9	Z9	X10	Y10	Z10	X11	Y11	Z11	X12	Y12	Z12	X13	Y13	Z13	X14	Y14	Z14	X15	Y15	Z15	X16	Y16	Z16	X17	Y17	Z17	X18	Y18	Z18	X19	Y19	Z19	X20	Y20	Z20	X21	Y21	Z21	X22	Y22	Z22	X23	Y23	Z23	X24	Y24	Z24	X25	Y25	Z25	X26	Y26	Z26	X27	Y27	Z27	X28	Y28	Z28	X29	Y29	Z29	X30	Y30	Z30	

1	0	-1882.605102539063	1315.990478515625	193.8412170410157	-1906.452758789063	1223.83056640625	310.4487609863282	-1769.483520507813	1205.465942382813	172.8804473876954	-1752.172485351563	1005.274780273438	167.3005828857422	-1857.165405273438	819.2507324218755	319.9454956054689	-1819.220703125001	810.9432983398442	95.20364379882815	-2009.825195312501	552.649841308594	332.175506591797	-2011.693359375001	473.9685668945315	315.1214599609376	-1972.071289062501	520.2952270507815	326.6979064941407	-2159.664306640626	255.5476226806642	288.5553283691407	-2327.945800781251	99.65237426757818	193.9351043701173	-2198.007812500001	15.45914936065675	258.8444824218751	-2154.743408203126	24.53872299194337	207.8226928710939	-1711.977050781251	618.1719360351565	53.13297653198245	-1728.983520507813	287.4728088378907	72.37902832031253	-1683.283203125001	304.2326660156251	81.4084167480469	-1821.394531250001	122.0409698486329	108.1681289672852	-1639.720092773438	80.04415130615237	110.5362701416016	-1670.703247070313	85.37495422363284	59.83198547363284	nan	nan	nan	nan	nan	nan	-1965.781616210938	1027.490356445313	185.1269531250001	-2003.185668945313	934.809204101563	186.0594177246094	-2012.750366210938	899.7019653320317	140.8752593994141	-2031.317382812501	884.242797851563	152.7895812988282	-2042.617187500001	883.2273559570317	201.9985961914064	-1739.905151367188	551.4470825195315	85.70867156982425	-2025.800415039063	907.343139648438	227.0003356933595	-1758.388427734376	603.2094726562502	56.87981796264651	-1701.532226562501	363.0923767089845	70.5409851074219	
2	0.005	-1867.752807617188	1321.80810546875	192.4432067871095	-1888.581054687501	1231.296020507813	310.5209045410157	-1755.134033203126	1211.360595703125	170.3066101074219	-1737.153320312501	1010.661010742188	165.8809356689454	-1841.714355468751	822.824096679688	320.7108154296876	-1802.708374023438	817.735473632813	96.48027801513678	-1999.619140625001	558.8469848632815	330.8103942871095	-2003.777343750001	480.5036315917971	313.3942260742189	-1962.785156250001	525.3037719726565	324.9225463867189	-2154.559082031251	263.2420959472657	288.0090332031251	-2319.951171875001	108.3639678955079	193.6019287109376	-2199.001220703126	15.37248706817628	258.7631835937501	-2156.836914062501	23.02749061584473	208.024139404297	-1694.665039062501	624.728698730469	54.02418899536136	-1700.706787109376	289.5784912109376	72.86641693115237	-1655.985961914063	308.1629028320314	83.17163848876956	-1787.490478515626	121.6991882324219	109.8079910278321	-1605.739135742188	81.65651702880862	113.9702148437501	-1636.227905273438	86.39841461181643	62.49124908447268	nan	nan	nan	nan	nan	nan	-1950.496948242188	1033.09375	188.8812408447266	-1986.949218750001	938.8322753906255	188.0267181396485	-1996.652954101563	904.5541992187505	142.2619171142579	-2015.219970703126	889.1544799804692	153.5787811279297	-2026.986694335938	887.4487915039067	202.6610412597657	-1723.708374023438	557.4267578125002	84.85788726806643	-2009.934448242188	911.3640747070317	228.4152679443361	-1741.422241210938	609.9783935546877	56.97985458374026	-1676.127929687501	366.1790771484376	70.62447357177737	
3	0.01	-1852.890625000001	1327.392578125	191.0531616210938	-1870.932373046876	1238.506591796875	310.4554443359376	-1740.765747070313	1217.080444335938	167.7914276123047	-1722.074462890626	1015.992553710938	164.5093994140626	-1826.238403320313	826.3378295898442	321.4641113281251	-1786.208740234376	824.302368164063	97.77454376220709	-1989.147460937501	564.936218261719	329.5160217285157	-1995.424926757813	486.9182434082034	311.7720031738282	-1953.196655273438	530.3040161132815	323.3540039062501	-2148.831787109376	270.7957458496095	287.3563232421876	-2311.000244140626	117.0023956298829	193.1513824462892	-2199.290039062501	15.82300853729249	258.5445861816407	-2158.228271484376	21.94734382629395	208.1198730468751	-1677.425537109376	631.1384887695315	54.99316024780276	-1673.074096679688	291.4918823242189	73.37335205078128	-1629.369262695313	311.8792419433595	84.73674011230472	-1753.998779296876	121.5500411987305	111.5123672485352	-1572.107421875001	83.47840881347659	117.3376693725587	-1602.182739257813	87.482536315918	65.2019958496094	nan	nan	nan	nan	nan	nan	-1935.199462890626	1038.54638671875	192.4039764404298	-1970.662353515626	942.840698242188	189.9271240234376	-1980.524658203126	909.341430664063	143.622055053711	-1999.052978515626	894.0247192382817	154.3510894775391	-2011.278198242188	891.6652221679692	203.302459716797	-1707.469970703126	563.3225708007815	83.99738311767581	-1993.976440429688	915.4025268554692	229.7830047607423	-1724.462402343751	616.6043701171877	57.09363555908206	-1651.444824218751	368.9321289062501	70.70648193359378	
4	0.015	-1838.018432617188	1332.743408203125	189.6711883544922	-1853.506713867188	1245.461181640625	310.2529602050782	-1726.378906250001	1222.624877929688	165.3350830078126	-1706.936279296876	1021.269165039063	163.1861419677735	-1810.737792968751	829.7919921875005	322.2051391601564	-1769.721923828126	830.6436157226567	99.08606719970709	-1978.409667968751	570.9162597656252	328.2925720214845	-1986.635375976563	493.2108154296877	310.2551574707032	-1943.305419921876	535.2942504882815	321.991912841797	-2142.483154296876	278.2075500488282	286.5972900390626	-2301.108398437501	125.5646362304688	192.5862731933595	-2198.869140625001	16.81393432617188	258.1890258789064	-2158.910156250001	21.30270195007325	208.1092529296876	-1660.262451171876	637.396911621094	56.03895950317386	-1646.086059570313	293.212860107422	73.89988708496097	-1603.433715820313	315.3810424804689	86.10350036621097	-1720.921752929688	121.5931396484376	113.2793426513672	-1538.828002929688	85.50938415527347	120.6385955810547	-1568.568725585938	88.62844085693362	67.96298980712893	nan	nan	nan	nan	nan	nan	-1919.889282226563	1043.848022460938	195.6948547363282	-1954.325561523438	946.8340454101567	191.7603607177735	-1964.365600585938	914.0631713867192	144.9554595947266	-1982.816406250001	898.8529663085942	155.1063995361329	-1995.492065429688	895.8761596679692	203.9227905273439	-1691.192993164063	569.1325683593752	83.12995147705081	-1977.927124023438	919.4578247070317	231.1033325195314	-1707.510742187501	623.0848388671877	57.22158813476565	-1627.483642578126	371.3514709472657	70.78738403320315	
5	0.02	-1823.136352539063	1337.8603515625	188.2977142333985	-1836.304321289063	1252.157104492188	309.9150695800782	-1711.973144531251	1227.99267578125	162.9379425048829	-1691.739135742188	1026.489868164063	161.9115753173829	-1795.212158203126	833.186401367188	322.9332275390626	-1753.248413085938	836.7581176757817	100.4137878417969	-1967.404663085938	576.7835083007815	327.1404113769532	-1977.407226562501	499.3769226074221	308.844696044922	-1933.109375000001	540.270202636719	320.8352050781251	-2135.515380859376	285.4746398925782	285.7324523925782	-2290.319091796876	134.0431823730469	191.913314819336	-2197.723876953126	18.35337448120118	257.6976013183595	-2158.862060546876	21.10457229614259	207.9906768798829	-1643.185424804688	643.4932250976565	57.15822601318362	-1619.745361328126	294.741180419922	74.44618225097659	-1578.180908203126	318.6667480468751	87.27168273925784	-1688.265625000001	121.8272781372071	115.1039428710938	-1505.90869140625	87.74822998046878	123.8720397949219	-1535.390991210938	89.83745574951175	70.77105712890628	nan	nan	nan	nan	nan	nan	-1904.567016601563	1048.996704101563	198.7530364990236	-1937.940185546876	950.811645507813	193.5255279541017	-1948.176635742188	918.7182617187505	146.2613677978516	-1966.511596679688	903.6374511718755	155.8443450927735	-1979.628784179688	900.0797729492192	204.5218048095704	-1674.884521484376	574.8504638671877	82.26329040527347	-1961.787841796876	923.528198242188	232.3757171630861	-1690.572265625001	629.4129638671877	57.3645935058594	-1604.244873046876	373.4367980957032	70.86830139160159	
